#!OML:ASF F:\VICON\USERDATA\INSTALL\Justin_Nancy\Justin_Nancy.ASF
:FULLY-SPECIFIED
:DEGREES
262
root 1.20968 14.5873 -14.543 36.8258 0.0392106 1.17974
lowerback 35.9681 0.467985 1.51223
upperback 3.54814 1.59485 2.65182
thorax -14.3085 0.664037 1.38893
lowerneck -26.0749 -3.8016 -6.94384
upperneck -8.36994 -3.14326 6.51441
head 1.57573 -1.15923 2.89814
rclavicle -1.19271e-014 -1.59028e-014
rhumerus -11.4984 -12.8366 -77.3261
rradius 47.8747
rwrist -12.3484
rhand -20.6423 26.2926
rfingers 7.12502
rthumb 5.71974 -3.61023
lclavicle -1.19271e-014 -1.59028e-014
lhumerus -7.09752 1.76477 87.1234
lradius 47.4432
lwrist 24.0799
lhand -29.0301 20.6692
lfingers 7.12502
lthumb -2.38082 50.6357
rfemur -78.3411 -3.30888 20.0011
rtibia 88.5826
rfoot -26.9685 -11.0096
rtoes -22.5384
lfemur -76.4204 -1.63472 -19.4067
ltibia 83.7517
lfoot -31.6522 3.80047
ltoes -21.149
263
root 1.20789 14.5718 -14.4573 36.3867 -0.0260087 0.95482
lowerback 35.5827 0.581845 1.48127
upperback 3.31596 1.73809 2.73875
thorax -14.4383 0.730651 1.44035
lowerneck -26.2044 -3.73136 -6.92989
upperneck -7.87622 -3.05846 6.50213
head 1.73886 -1.11333 2.89525
rclavicle -1.66979e-014 7.55382e-015
rhumerus -8.29148 -11.2003 -77.3
rradius 49.9318
rwrist -14.5526
rhand -18.8038 27.3604
rfingers 7.12502
rthumb 7.49454 -2.48684
lclavicle -1.66979e-014 7.55382e-015
lhumerus -3.56595 0.451742 87.2628
lradius 49.7493
lwrist 24.2258
lhand -28.0708 18.5676
lfingers 7.12502
lthumb -1.45429 48.5424
rfemur -77.433 -2.81467 19.9016
rtibia 88.6637
rfoot -27.1595 -11.401
rtoes -23.1564
lfemur -75.8805 -1.55052 -19.1409
ltibia 84.2399
lfoot -31.6515 3.80538
ltoes -21.7971
264
root 1.21514 14.5616 -14.3551 36.199 0.0266542 0.445374
lowerback 34.6798 0.616053 1.81656
upperback 3.10367 1.90691 2.84877
thorax -14.324 0.791609 1.3133
lowerneck -26.3765 -3.64469 -6.8424
upperneck -7.34627 -2.97171 6.46602
head 1.91715 -1.06864 2.87329
rclavicle 2.38542e-015 -1.59028e-015
rhumerus -4.91752 -9.45421 -76.896
rradius 52.782
rwrist -15.286
rhand -16.6459 22.5515
rfingers 7.12502
rthumb 9.577 -7.21086
lclavicle 2.38542e-015 -1.59028e-015
lhumerus 0.262877 -1.31629 87.0179
lradius 52.0363
lwrist 23.5486
lhand -28.031 18.2337
lfingers 7.12502
lthumb -1.41584 48.2088
rfemur -76.5318 -2.30089 20.1232
rtibia 88.5254
rfoot -27.4741 -11.9127
rtoes -23.9888
lfemur -75.4524 -1.41797 -18.6347
ltibia 84.6794
lfoot -31.7005 4.03195
ltoes -22.6909
265
root 1.20727 14.5829 -14.2262 35.5095 0.616667 0.486519
lowerback 34.1948 0.390225 2.15873
upperback 2.95565 1.75997 2.95075
thorax -14.2903 0.714835 1.30515
lowerneck -26.5228 -3.55765 -6.72552
upperneck -6.72459 -2.89895 6.46868
head 2.12301 -1.02976 2.85768
rclavicle 3.18055e-015 -5.56597e-015
rhumerus -1.43961 -7.49618 -76.129
rradius 55.3733
rwrist -16.2259
rhand -16.4918 24.9023
rfingers 7.12502
rthumb 9.72567 -4.85314
lclavicle 3.18055e-015 -5.56597e-015
lhumerus 4.4693 -3.25138 86.3273
lradius 53.8181
lwrist 21.6364
lhand -27.5455 19.3423
lfingers 7.12502
lthumb -0.946962 49.3199
rfemur -74.7009 -2.39805 20.1705
rtibia 88.1723
rfoot -28.0864 -12.5667
rtoes -24.5884
lfemur -74.1561 -1.99981 -18.241
ltibia 84.7455
lfoot -31.8118 4.08568
ltoes -23.7087
266
root 1.18239 14.6048 -14.1002 34.8399 0.868106 0.678428
lowerback 33.7603 0.383629 1.9457
upperback 2.73611 1.67489 2.97659
thorax -14.3764 0.693367 1.48566
lowerneck -26.4354 -3.55432 -6.75025
upperneck -6.13853 -2.91897 6.75952
head 2.30533 -1.02435 2.94899
rclavicle 9.54166e-015 3.06128e-014
rhumerus 1.9923 -5.59241 -75.0229
rradius 57.9952
rwrist -16.5158
rhand -15.5887 24.5141
rfingers 7.12502
rthumb 10.597 -5.19873
lclavicle 9.54166e-015 3.06128e-014
lhumerus 8.93918 -5.24018 85.1892
lradius 55.6303
lwrist 21.3615
lhand -28.303 18.8717
lfingers 7.12502
lthumb -1.67856 48.8448
rfemur -73.0296 -2.17389 19.8877
rtibia 87.7291
rfoot -28.53 -13.0177
rtoes -24.5794
lfemur -72.8686 -2.36775 -18.0717
ltibia 84.6676
lfoot -31.7062 3.7157
ltoes -24.8242
267
root 1.15965 14.6564 -13.966 33.9728 1.15308 0.937045
lowerback 33.5171 0.355886 1.72529
upperback 2.60453 1.56305 2.99708
thorax -14.4357 0.66039 1.67478
lowerneck -26.5179 -3.62793 -6.80243
upperneck -5.57627 -3.02624 7.10101
head 2.50929 -1.05597 3.05256
rclavicle -4.77083e-015 7.95139e-015
rhumerus 5.56827 -3.93514 -73.476
rradius 61.0507
rwrist -15.6954
rhand -15.6021 25.0883
rfingers 7.12502
rthumb 10.584 -4.62515
lclavicle -4.77083e-015 7.95139e-015
lhumerus 13.6856 -6.93843 83.6918
lradius 57.9202
lwrist 20.3684
lhand -26.881 18.5013
lfingers 7.12502
lthumb -0.305169 48.4808
rfemur -70.9506 -2.01805 19.5411
rtibia 87.08
rfoot -28.9316 -13.2819
rtoes -24.2744
lfemur -71.1467 -2.76838 -18.0029
ltibia 84.3359
lfoot -31.3951 3.43177
ltoes -26.1064
268
root 1.14664 14.6903 -13.8488 33.731 1.05761 0.813876
lowerback 32.6345 0.500869 1.5166
upperback 2.38291 1.6471 2.95899
thorax -14.3307 0.712495 1.71537
lowerneck -26.8482 -3.72324 -6.69829
upperneck -4.89978 -3.20065 7.39535
head 2.78222 -1.11933 3.10856
rclavicle -1.19271e-014 -1.74931e-014
rhumerus 9.36168 -2.69539 -71.6974
rradius 63.647
rwrist -14.6473
rhand -14.3626 25.2011
rfingers 7.12502
rthumb 11.7794 -4.44765
lclavicle -1.19271e-014 -1.74931e-014
lhumerus 18.355 -8.51326 81.5875
lradius 60.1216
lwrist 19.0432
lhand -26.8686 17.8499
lfingers 7.12502
lthumb -0.293141 47.8295
rfemur -69.793 -1.46563 19.3713
rtibia 86.4658
rfoot -28.9209 -13.4535
rtoes -24.4933
lfemur -70.3501 -2.69084 -17.8263
ltibia 84.1381
lfoot -30.8707 3.22394
ltoes -26.3076
269
root 1.13171 14.7221 -13.7151 33.4033 1.22197 0.826395
lowerback 31.9574 0.462626 1.41506
upperback 2.0981 1.54784 2.90925
thorax -14.371 0.677482 1.76116
lowerneck -27.2234 -3.80511 -6.56416
upperneck -4.15209 -3.37624 7.75385
head 3.08655 -1.17572 3.17998
rclavicle -1.27222e-014 -7.95139e-015
rhumerus 13.2086 -1.88615 -69.7177
rradius 66.0444
rwrist -13.1841
rhand -12.966 24.7862
rfingers 7.12502
rthumb 13.126 -4.78069
lclavicle -1.27222e-014 -7.95139e-015
lhumerus 22.9384 -9.85117 78.8651
lradius 62.5255
lwrist 18.6401
lhand -26.314 19.4889
lfingers 7.12502
lthumb 0.242505 49.4685
rfemur -68.4326 -1.27095 19.3308
rtibia 85.8602
rfoot -29.0219 -13.612
rtoes -24.5847
lfemur -69.4006 -2.8746 -17.6319
ltibia 83.8587
lfoot -30.3834 3.02025
ltoes -26.1677
270
root 1.11836 14.7822 -13.5511 32.7032 1.60872 0.99247
lowerback 31.5098 0.303375 1.42416
upperback 1.97676 1.33601 2.87214
thorax -14.3103 0.586018 1.80391
lowerneck -27.5128 -3.88044 -6.53174
upperneck -3.63995 -3.51258 8.13928
head 3.3072 -1.21 3.28205
rclavicle 0 4.77083e-015
rhumerus 16.7525 -1.42855 -67.4397
rradius 68.9544
rwrist -12.0214
rhand -11.5653 23.7015
rfingers 7.12502
rthumb 14.4758 -5.77359
lclavicle 0 4.77083e-015
lhumerus 27.8135 -10.8929 75.5589
lradius 65.1293
lwrist 19.1716
lhand -24.7687 20.6243
lfingers 7.12502
lthumb 1.73498 50.597
rfemur -66.3152 -1.48005 19.3843
rtibia 85.0843
rfoot -29.1674 -13.9422
rtoes -24.8947
lfemur -67.7113 -3.26936 -17.5279
ltibia 83.3342
lfoot -30.1776 2.7255
ltoes -25.9639
271
root 1.10229 14.8697 -13.3684 31.8067 2.03574 1.18067
lowerback 31.1927 0.143647 1.43441
upperback 1.99994 1.1224 2.84073
thorax -14.1374 0.492814 1.85019
lowerneck -27.9673 -3.96718 -6.47448
upperneck -3.23767 -3.65274 8.39336
head 3.51019 -1.2497 3.33803
rclavicle -2.38542e-015 -1.35174e-014
rhumerus 20.24 -1.36279 -64.8855
rradius 72.02
rwrist -11.5462
rhand -12.3351 25.2752
rfingers 7.12502
rthumb 13.734 -4.25151
lclavicle -2.38542e-015 -1.35174e-014
lhumerus 32.8265 -11.2308 71.9875
lradius 67.7216
lwrist 20.1478
lhand -25.4696 20.0647
lfingers 7.12502
lthumb 1.05799 50.0418
rfemur -63.7866 -1.74644 19.4441
rtibia 84.0485
rfoot -29.1969 -14.2043
rtoes -25.4117
lfemur -65.5732 -3.64329 -17.4539
ltibia 82.5393
lfoot -29.9227 2.08883
ltoes -24.8466
272
root 1.08689 14.97 -13.163 30.7931 2.16903 1.19452
lowerback 31.1681 0.0752888 1.36286
upperback 1.93144 1.00191 2.76877
thorax -14.2021 0.4426 1.8598
lowerneck -28.5262 -3.99058 -6.26659
upperneck -2.70146 -3.75235 8.47377
head 3.75771 -1.27603 3.31791
rclavicle -1.03368e-014 -9.54166e-015
rhumerus 23.5804 -1.61991 -62.1792
rradius 75.0665
rwrist -10.8099
rhand -11.7271 24.7121
rfingers 7.12502
rthumb 14.32 -4.77403
lclavicle -1.03368e-014 -9.54166e-015
lhumerus 37.458 -10.802 68.3672
lradius 70.2163
lwrist 21.2501
lhand -26.0042 18.0859
lfingers 7.12502
lthumb 0.541641 48.065
rfemur -61.046 -1.65718 19.4642
rtibia 82.7762
rfoot -29.0687 -14.2699
rtoes -25.9115
lfemur -63.0625 -3.69254 -17.3858
ltibia 81.5228
lfoot -29.6094 1.38529
ltoes -24.9235
273
root 1.08302 15.0676 -12.9487 30.0264 1.70657 0.835314
lowerback 30.9328 0.268076 1.20964
upperback 1.77969 1.18147 2.69506
thorax -14.2805 0.528875 1.79268
lowerneck -28.9084 -3.97709 -6.11615
upperneck -2.37104 -3.78349 8.51981
head 3.91272 -1.27551 3.30458
rclavicle -1.98785e-014 -8.74653e-015
rhumerus 26.7271 -2.21088 -59.2379
rradius 77.9784
rwrist -10.3397
rhand -11.4013 24.8138
rfingers 7.12502
rthumb 14.6339 -4.64986
lclavicle -1.98785e-014 -8.74653e-015
lhumerus 41.6349 -9.69765 64.9127
lradius 72.8769
lwrist 21.6802
lhand -25.649 16.8119
lfingers 7.12502
lthumb 0.884709 46.7898
rfemur -58.663 -1.05861 19.535
rtibia 81.3379
rfoot -28.5744 -14.037
rtoes -26.3068
lfemur -60.7144 -3.09355 -17.3349
ltibia 80.3497
lfoot -29.1599 0.903147
ltoes -26.9641
274
root 1.07381 15.1734 -12.7166 29.4236 1.598 0.809747
lowerback 30.3496 0.352231 1.02737
upperback 1.69561 1.21228 2.67573
thorax -14.1233 0.55511 1.86052
lowerneck -29.1626 -3.95942 -6.19091
upperneck -2.31823 -3.73289 8.68365
head 3.96549 -1.23082 3.37627
rclavicle 5.56597e-015 -9.54166e-015
rhumerus 29.8662 -3.40307 -56.0434
rradius 80.6943
rwrist -9.87573
rhand -10.8933 24.3362
rfingers 7.12502
rthumb 15.1233 -5.0913
lclavicle 5.56597e-015 -9.54166e-015
lhumerus 45.5187 -7.97654 61.7822
lradius 75.7017
lwrist 21.5558
lhand -24.3209 16.8016
lfingers 7.12502
lthumb 2.16749 46.7704
rfemur -56.2835 -0.971856 19.5004
rtibia 79.682
rfoot -27.9351 -13.6388
rtoes -26.7085
lfemur -58.4322 -2.88008 -17.3898
ltibia 78.9103
lfoot -28.5147 0.186416
ltoes -28.3578
275
root 1.04913 15.3391 -12.4202 27.7151 3.34219 1.58446
lowerback 30.9163 -0.387614 1.49548
upperback 1.7407 0.46022 2.77597
thorax -14.2958 0.199712 2.01355
lowerneck -29.2061 -3.94119 -6.25783
upperneck -2.4087 -3.68662 8.84166
head 3.9461 -1.19525 3.44455
rclavicle 7.95139e-016 -1.82882e-014
rhumerus 32.5059 -5.12343 -52.8311
rradius 83.3012
rwrist -9.07107
rhand -10.5152 24.2923
rfingers 7.12502
rthumb 15.4875 -5.10735
lclavicle 7.95139e-016 -1.82882e-014
lhumerus 49.0879 -5.85814 58.8027
lradius 78.3836
lwrist 21.7263
lhand -24.5909 15.7799
lfingers 7.12502
lthumb 1.9067 45.7511
rfemur -51.6585 -2.62777 19.5925
rtibia 77.4824
rfoot -27.7674 -13.3578
rtoes -26.3746
lfemur -54.4336 -4.51275 -17.3193
ltibia 76.8398
lfoot -27.8489 -0.805531
ltoes -28.9107
276
root 1.05771 15.5061 -12.1033 26.4712 3.36925 1.25519
lowerback 30.8622 -0.406008 1.84806
upperback 1.71305 0.557352 2.78217
thorax -14.3008 0.220612 1.78959
lowerneck -29.4462 -3.98545 -6.34376
upperneck -2.31911 -3.7189 9.03539
head 4.01606 -1.18903 3.5183
rclavicle -7.95139e-015 -1.03368e-014
rhumerus 34.4038 -7.0301 -49.5626
rradius 85.906
rwrist -8.3294
rhand -11.139 25.0043
rfingers 7.12502
rthumb 14.8866 -4.44079
lclavicle -7.95139e-015 -1.03368e-014
lhumerus 52.2561 -3.47521 56.0517
lradius 80.9127
lwrist 22.1253
lhand -25.0597 14.9464
lfingers 7.12502
lthumb 1.45394 44.9212
rfemur -47.7046 -2.66727 19.834
rtibia 74.9263
rfoot -27.189 -12.5699
rtoes -26.1208
lfemur -50.6651 -4.27322 -17.1352
ltibia 74.6111
lfoot -27.0248 -1.64427
ltoes -29.3779
